<svg width="197" height="29" viewBox="0 0 197 29" fill="none" xmlns="http://www.w3.org/2000/svg">
<g clip-path="url(#clip0_1075_3907)">
<path d="M82.4923 9.46248L91.7216 9.11316L99.7245 9.09011L103.15 8.96046L107.808 8.69085L119.987 8.22989L124.177 8.16458L128.371 8.19243L133.805 8.26661L135.521 8.29493L140.951 8.27596L142.572 8.30789L143.337 8.37223L144.764 8.31821L147.241 8.31773L148.862 8.34966L149.719 8.31725L151.435 8.34558L151.918 8.51387L152.013 8.51027L152.009 8.41712L152.771 8.38831L152.964 8.47426L154.772 8.40583L155.822 8.45937L157.059 8.41255L159.921 8.49082L161.732 8.51554L162.497 8.57988L162.793 8.84853L163.18 9.02043L161.848 9.07085L160.988 9.01011L160.995 9.19641L161.281 9.1856L161.387 9.46145L162.151 9.5258L162.158 9.7121L162.447 9.79444L161.496 9.83046L161.112 9.75171L161.119 9.93801L162.165 9.8984L163.698 10.1202L163.712 10.4928L164.104 10.7579L165.263 11.1804L165.369 11.4563L165.083 11.4671L165.09 11.6534L165.478 11.8253L165.584 12.1011L165.781 12.2802L164.932 12.4989L164.47 12.8895L164.29 13.1762L163.536 13.3913L162.014 13.4489L160.774 13.4026L160.196 13.2379L160.203 13.4242L157.158 13.5394L155.156 13.5219L154.392 13.4576L154.374 12.9918L154.758 13.0706L154.649 12.7016L154.737 12.5117L154.184 12.999L153.993 13.0062L153.916 13.4756L152.39 13.4401L152.006 13.3613L150.388 13.4225L150.477 13.2326L150.283 13.1467L150.29 13.333L147.626 13.4338L137.054 13.5541L131.148 13.5911L128.956 13.5808L125.238 13.5349L121.048 13.6002L113.151 13.8991L106.589 14.2408L101.553 14.6179L98.2234 14.744L95.8623 15.2998L90.5482 15.874L82.8519 16.4452L76.6744 16.8656L72.8756 17.1959L70.6943 17.465L67.1809 17.7846L65.285 18.0429L62.5328 18.3337L57.4125 18.9939L55.3299 19.3526L52.1019 19.6613L48.6802 19.8841L42.2243 20.5016L36.5261 20.9971L32.8295 21.5102L29.4148 21.9193L25.7181 22.4323L21.359 23.0637L18.5117 23.3581L16.0555 23.9175L15.3965 24.129L14.8397 24.5232L13.9905 24.7419L12.0875 24.8139L10.6497 24.5885L9.03225 24.6497L7.78829 24.5102L7.00949 24.0733L6.80862 23.801L6.57955 22.7836L6.37162 22.325L5.69854 22.1639L5.49415 21.7985L5.57167 21.3292L5.74081 20.7631L4.97963 20.7919L5.24392 20.2222L4.85981 20.1434L5.22981 19.8496L6.08261 19.724L6.07556 19.5377L5.78659 19.4554L5.77954 19.2691L4.7294 19.2155L3.97528 19.4306L3.21058 19.3663L3.29867 19.1764L5.28265 18.7282L5.46237 18.4415L5.9381 18.4235L5.93105 18.2372L5.64914 18.3412L3.65106 18.4168L3.644 18.2305L4.77519 17.9078L5.043 17.4313L6.08609 17.2985L6.16713 16.9223L6.73096 16.7144L7.0023 16.331L6.42789 16.2594L6.70628 16.0623L7.93614 15.8292L8.22158 15.8184L8.15111 16.4741L8.72904 16.6387L8.71141 16.173L8.99333 16.069L8.98628 15.8827L8.50349 15.7144L8.68673 15.5209L10.1069 15.2806L10.5826 15.2626L10.6848 15.4453L11.2592 15.5169L11.2522 15.3306L10.8645 15.1587L12.0944 14.9255L17.3169 14.448L19.8823 14.2576L21.2108 14.1141L24.5375 13.8949L25.9611 13.7477L28.3363 13.5645L40.4058 12.7346L41.7343 12.591L51.2384 11.9514L62.2578 11.0679L65.2955 10.7664L65.8628 10.6516L68.9991 10.4396L69.9471 10.3105L77.8337 9.7321L82.4923 9.46248ZM148.774 8.53956L148.884 8.90856L148.697 9.00892L149.077 8.99451L148.87 8.53596L148.774 8.53956ZM147.069 8.79069L147.079 9.07014L147.552 8.95898L147.354 8.77988L147.069 8.79069ZM149.634 8.6003L149.447 8.70065L149.472 9.35271L149.779 9.90081L150.064 9.89001L149.853 9.3383L149.941 9.1484L149.747 9.06245L150.219 8.9513L150.018 8.67905L149.634 8.6003ZM147.738 8.85863L147.745 9.04493L148.119 8.84422L147.738 8.85863ZM150.311 8.85454L150.413 9.03724L150.889 9.01924L150.787 8.83654L150.311 8.85454ZM151.262 8.81853L150.889 9.01924L150.896 9.20554L151.178 9.10159L152.034 9.06917L152.323 9.15152L152.408 8.86847L151.262 8.81853ZM152.88 8.75731L152.605 9.04757L152.894 9.12991L153.193 9.49171L152.823 9.78557L152.845 10.3445L153.13 10.3337L153.014 9.77837L153.303 9.86071L153.514 10.4124L153.704 10.4052L153.884 10.1186L154.163 9.92145L153.676 9.66001L153.278 9.20866L153.267 8.92921L153.077 8.93641L153.07 8.75011L152.88 8.75731ZM150.226 9.1376L150.138 9.3275L150.424 9.3167L150.417 9.1304L150.226 9.1376ZM154.222 8.98634L154.325 9.16904L154.895 9.14744L154.793 8.96474L154.222 8.98634ZM152.422 9.24107L152.429 9.42737L152.711 9.32342L152.422 9.24107ZM148.433 9.57862L148.44 9.76493L148.82 9.75052L148.813 9.56422L148.433 9.57862ZM149.095 9.46027L148.908 9.56062L148.915 9.74692L149.292 9.63936L149.095 9.46027ZM150.339 9.59975L150.152 9.7001L150.159 9.8864L150.734 9.95795L150.529 9.59255L150.339 9.59975ZM150.91 9.57814L151.206 9.84679L151.195 9.56734L150.91 9.57814ZM152.242 9.52772L152.161 9.90393L152.545 9.98267L152.63 9.69962L152.242 9.52772ZM154.17 10.1078L154.081 10.2977L154.272 10.2905L154.17 10.1078ZM153.895 10.398L153.807 10.5879L153.997 10.5807L153.895 10.398ZM80.6106 15.1307L69.5913 16.0143L63.8966 16.6029L58.7657 16.9837L54.7801 17.4144L51.3689 17.9167L47.3833 18.3474L42.8269 18.7997L38.7497 19.3271L37.2344 19.571L37.2379 19.6642L38.7602 19.6066L42.2736 19.287L45.4029 18.8887L48.3454 18.5908L53.8568 18.1956L56.7958 17.8045L59.3542 17.4278L63.1495 17.0043L65.9968 16.71L68.4636 16.4301L75.9661 15.773L78.1509 15.597L82.0484 15.3562L84.3284 15.1766L84.3214 14.9903L80.6106 15.1307ZM153.599 12.648L153.514 12.9311L153.888 12.7304L153.599 12.648ZM156.372 12.9162L156.379 13.1025L156.756 12.9949L156.372 12.9162ZM6.62176 18.864L6.53366 19.0539L6.8191 19.0431L6.81205 18.8568L6.62176 18.864Z" fill="#6329EC" fill-opacity="0.85"/>
<path d="M80.0749 8.52783L89.3992 8.17491L89.4028 8.26806L80.0784 8.62098L80.0749 8.52783Z" fill="#6329EC" fill-opacity="0.85"/>
<path d="M148.485 10.9755L148.965 11.0507L149.074 11.4197L148.799 11.7099L148.715 11.993L149.003 12.0753L148.813 12.0825L148.729 12.3656L148.718 12.0861L148.538 12.3728L148.246 12.1973L148.235 11.9178L148.426 11.9106L148.602 11.5308L148.503 11.4413L148.485 10.9755Z" fill="#6329EC" fill-opacity="0.85"/>
<path d="M141.681 9.92718L142.065 10.0059L142.079 10.3785L142.368 10.4609L142.28 10.6508L142.089 10.658L142.082 10.4717L141.804 10.6688L141.621 10.8623L141.416 10.4969L141.607 10.4897L141.494 10.0275L141.681 9.92718Z" fill="#6329EC" fill-opacity="0.85"/>
<path d="M31.1448 12.2452L33.0477 12.1731L33.0513 12.2663L31.3422 12.4243L29.1538 12.5071L29.1503 12.414L31.1448 12.2452Z" fill="#6329EC" fill-opacity="0.85"/>
<path d="M74.655 8.82611L75.8919 8.77929L75.899 8.96559L72.8543 9.08083L72.8508 8.98768L74.655 8.82611Z" fill="#6329EC" fill-opacity="0.85"/>
<path d="M17.0843 13.3374L20.0338 13.2258L20.0373 13.3189L17.2816 13.5165L17.0843 13.3374Z" fill="#6329EC" fill-opacity="0.85"/>
<path d="M77.2205 8.6355L79.0283 8.56707L79.0318 8.66022L77.3227 8.8182L76.0858 8.86501L76.0822 8.77186L77.2205 8.6355Z" fill="#6329EC" fill-opacity="0.85"/>
<path d="M25.8237 12.6333L27.5363 12.5685L27.5398 12.6616L26.3065 12.8016L25.8272 12.7265L25.8237 12.6333Z" fill="#6329EC" fill-opacity="0.85"/>
<path d="M66.0108 9.52637L68.3894 9.43634L68.393 9.52949L66.0143 9.61952L66.0108 9.52637Z" fill="#6329EC" fill-opacity="0.85"/>
<path d="M42.1678 11.4551L43.9755 11.3867L43.9791 11.4798L42.1713 11.5482L42.1678 11.4551Z" fill="#6329EC" fill-opacity="0.85"/>
<path d="M20.1254 13.1289L21.4575 13.0785L21.461 13.1716L20.129 13.2221L20.1254 13.1289Z" fill="#6329EC" fill-opacity="0.85"/>
<path d="M44.638 11.2682L45.5895 11.2322L45.593 11.3253L44.4548 11.4617L44.638 11.2682Z" fill="#6329EC" fill-opacity="0.85"/>
<path d="M23.0714 12.9238L24.2132 12.8806L24.2167 12.9738L23.075 13.017L23.0714 12.9238Z" fill="#6329EC" fill-opacity="0.85"/>
<path d="M21.5491 12.9814L22.6909 12.9382L22.6944 13.0314L21.5526 13.0746L21.5491 12.9814Z" fill="#6329EC" fill-opacity="0.85"/>
<path d="M37.798 11.8071L38.4641 11.7819L38.1857 11.979L37.8016 11.9003L37.798 11.8071Z" fill="#6329EC" fill-opacity="0.85"/>
<path d="M90.9251 8.21045L91.8766 8.17444L91.8801 8.26759L90.9286 8.3036L90.9251 8.21045Z" fill="#6329EC" fill-opacity="0.85"/>
<path d="M15.5654 13.4878L16.4218 13.4554L16.4253 13.5485L15.569 13.5809L15.5654 13.4878Z" fill="#6329EC" fill-opacity="0.85"/>
<path d="M25.2528 12.6551L25.6334 12.6407L25.6404 12.827L25.1647 12.845L25.2528 12.6551Z" fill="#6329EC" fill-opacity="0.85"/>
<path d="M58.5118 10.2769L59.3681 10.2444L59.3717 10.3376L58.5153 10.37L58.5118 10.2769Z" fill="#6329EC" fill-opacity="0.85"/>
<path d="M69.6193 9.20312L70.1902 9.18152L69.9118 9.37862L69.6263 9.38943L69.6193 9.20312Z" fill="#6329EC" fill-opacity="0.85"/>
<path d="M68.5762 9.33594L69.4325 9.30353L69.436 9.39668L68.5797 9.42909L68.5762 9.33594Z" fill="#6329EC" fill-opacity="0.85"/>
<path d="M70.3805 9.17432L71.2368 9.1419L71.2403 9.23506L70.384 9.26747L70.3805 9.17432Z" fill="#6329EC" fill-opacity="0.85"/>
<path d="M56.3234 10.3597L56.7076 10.4384L56.2354 10.5496L56.3234 10.3597Z" fill="#6329EC" fill-opacity="0.85"/>
<path d="M161.566 9.1748L161.954 9.3467L161.573 9.36111L161.566 9.1748Z" fill="#6329EC" fill-opacity="0.85"/>
<path d="M36.6598 11.9434L37.3258 11.9182L37.3294 12.0113L36.6633 12.0365L36.6598 11.9434Z" fill="#6329EC" fill-opacity="0.85"/>
<path d="M53.5712 10.6504L54.2373 10.6252L54.2408 10.7183L53.5748 10.7435L53.5712 10.6504Z" fill="#6329EC" fill-opacity="0.85"/>
<path d="M57.0846 10.3306L57.7507 10.3054L57.7542 10.3985L57.0882 10.4237L57.0846 10.3306Z" fill="#6329EC" fill-opacity="0.85"/>
<path d="M63.8295 9.79541L64.4955 9.7702L64.499 9.86335L63.833 9.88856L63.8295 9.79541Z" fill="#6329EC" fill-opacity="0.85"/>
<path d="M65.3483 9.64453L66.0143 9.61932L66.0178 9.71247L65.3518 9.73768L65.3483 9.64453Z" fill="#6329EC" fill-opacity="0.85"/>
<path d="M12.4326 13.793L13.0035 13.7714L13.0071 13.8645L12.4362 13.8861L12.4326 13.793Z" fill="#6329EC" fill-opacity="0.85"/>
<path d="M13.666 13.6533L14.2369 13.6317L14.2405 13.7249L13.6696 13.7465L13.666 13.6533Z" fill="#6329EC" fill-opacity="0.85"/>
<path d="M45.6846 11.2285L46.2555 11.2069L46.259 11.3001L45.6882 11.3217L45.6846 11.2285Z" fill="#6329EC" fill-opacity="0.85"/>
<path d="M59.8439 10.2261L60.4148 10.2045L60.4183 10.2976L59.8474 10.3192L59.8439 10.2261Z" fill="#6329EC" fill-opacity="0.85"/>
<path d="M105.962 7.73438L106.533 7.71277L106.536 7.80592L105.965 7.82753L105.962 7.73438Z" fill="#6329EC" fill-opacity="0.85"/>
<path d="M92.162 8.16357L92.6413 8.23872L92.2642 8.34627L92.162 8.16357Z" fill="#6329EC" fill-opacity="0.85"/>
<path d="M55.1852 10.4961L55.6609 10.4781L55.6645 10.5712L55.1887 10.5892L55.1852 10.4961Z" fill="#6329EC" fill-opacity="0.85"/>
<path d="M108.531 7.63721L109.007 7.6192L109.01 7.71235L108.534 7.73036L108.531 7.63721Z" fill="#6329EC" fill-opacity="0.85"/>
<path d="M8.3273 16.0942L8.61274 16.0834L8.52465 16.2733L8.3273 16.0942Z" fill="#6329EC" fill-opacity="0.85"/>
</g>
<defs>
<clipPath id="clip0_1075_3907">
<rect width="195" height="21" fill="white" transform="translate(0.672607 7.69531) rotate(-2.16759)"/>
</clipPath>
</defs>
</svg>
