<svg width="80" height="81" viewBox="0 0 80 81" fill="none" xmlns="http://www.w3.org/2000/svg">
<path d="M49.8862 13.1289C61.8293 5.07174 71.7722 1.35745 75.4293 5.07174C81.1436 10.786 69.4865 31.1289 50.0576 50.786C30.6291 70.4429 10.0576 81.8715 4.34336 76.1572C0.586405 72.4006 4.22842 62.1263 12.8646 49.9184" stroke="#1C1C1E" stroke-opacity="0.8" stroke-width="2" stroke-linecap="round" stroke-linejoin="round"/>
<path d="M31.0835 67.6658C33.9592 68.5967 36.9678 69.0727 40.0002 69.0715C44.7882 69.0744 49.5002 67.8744 53.7033 65.5807C57.9065 63.2876 61.4659 59.975 64.0545 55.9468C66.643 51.9188 68.1773 47.3049 68.5179 42.529C68.7893 38.7116 68.291 34.8885 67.0625 31.2842" stroke="#1C1C1E" stroke-opacity="0.8" stroke-width="2" stroke-linecap="round" stroke-linejoin="round"/>
<path d="M17.143 57.643C13.0165 52.141 11.0131 45.335 11.5006 38.4747C11.9882 31.6145 14.9339 25.1603 19.7971 20.2971C24.6603 15.4339 31.1145 12.4882 37.9747 12.0006C44.835 11.5131 51.641 13.5165 57.143 17.643" stroke="#1C1C1E" stroke-opacity="0.8" stroke-width="2" stroke-linecap="round" stroke-linejoin="round"/>
</svg>
