<svg id="visual" viewBox="0 0 900 600" width="900" height="600" xmlns="http://www.w3.org/2000/svg" xmlns:xlink="http://www.w3.org/1999/xlink" version="1.1"><g><g transform="translate(309 373)"><path d="M0 -32L27.7 -16L27.7 16L0 32L-27.7 16L-27.7 -16Z" fill="none" stroke="#3b3939" stroke-width="2"></path></g><g transform="translate(593 462)"><path d="M0 -29L25.1 -14.5L25.1 14.5L0 29L-25.1 14.5L-25.1 -14.5Z" fill="none" stroke="#3b3939" stroke-width="2"></path></g><g transform="translate(682 571)"><path d="M0 -29L25.1 -14.5L25.1 14.5L0 29L-25.1 14.5L-25.1 -14.5Z" fill="none" stroke="#3b3939" stroke-width="2"></path></g><g transform="translate(872 146)"><path d="M0 -27L23.4 -13.5L23.4 13.5L0 27L-23.4 13.5L-23.4 -13.5Z" fill="none" stroke="#3b3939" stroke-width="2"></path></g><g transform="translate(507 240)"><path d="M0 -24L20.8 -12L20.8 12L0 24L-20.8 12L-20.8 -12Z" fill="none" stroke="#3b3939" stroke-width="2"></path></g><g transform="translate(697 432)"><path d="M0 -19L16.5 -9.5L16.5 9.5L0 19L-16.5 9.5L-16.5 -9.5Z" fill="none" stroke="#3b3939" stroke-width="2"></path></g><g transform="translate(179 510)"><path d="M0 -22L19.1 -11L19.1 11L0 22L-19.1 11L-19.1 -11Z" fill="none" stroke="#3b3939" stroke-width="2"></path></g><g transform="translate(599 306)"><path d="M0 -18L15.6 -9L15.6 9L0 18L-15.6 9L-15.6 -9Z" fill="none" stroke="#3b3939" stroke-width="2"></path></g><g transform="translate(820 237)"><path d="M0 -12L10.4 -6L10.4 6L0 12L-10.4 6L-10.4 -6Z" stroke="#3b3939" fill="none" stroke-width="2"></path></g><g transform="translate(7 99)"><path d="M0 -17L14.7 -8.5L14.7 8.5L0 17L-14.7 8.5L-14.7 -8.5Z" stroke="#3b3939" fill="none" stroke-width="2"></path></g><g transform="translate(744 77)"><path d="M0 -24L20.8 -12L20.8 12L0 24L-20.8 12L-20.8 -12Z" stroke="#3b3939" fill="none" stroke-width="2"></path></g><g transform="translate(547 592)"><path d="M0 -29L25.1 -14.5L25.1 14.5L0 29L-25.1 14.5L-25.1 -14.5Z" stroke="#3b3939" fill="none" stroke-width="2"></path></g><g transform="translate(278 71)"><path d="M0 -18L15.6 -9L15.6 9L0 18L-15.6 9L-15.6 -9Z" stroke="#3b3939" fill="none" stroke-width="2"></path></g><g transform="translate(797 6)"><path d="M0 -12L10.4 -6L10.4 6L0 12L-10.4 6L-10.4 -6Z" stroke="#3b3939" fill="none" stroke-width="2"></path></g><g transform="translate(665 289)"><path d="M0 -23L19.9 -11.5L19.9 11.5L0 23L-19.9 11.5L-19.9 -11.5Z" stroke="#3b3939" fill="none" stroke-width="2"></path></g></g></svg>