<svg width="62" height="38" viewBox="0 0 62 38" fill="none" xmlns="http://www.w3.org/2000/svg">
<g id="aws 1" clip-path="url(#clip0_717_2383)">
<g id="Group">
<path id="Vector" d="M17.8982 13.9785C17.8982 14.7269 17.9791 15.3336 18.1207 15.7786C18.2825 16.2235 18.4847 16.7089 18.7679 17.2348C18.869 17.3966 18.9095 17.5584 18.9095 17.7C18.9095 17.9022 18.7881 18.1045 18.5252 18.3067L17.251 19.1562C17.069 19.2775 16.8869 19.3382 16.7251 19.3382C16.5229 19.3382 16.3206 19.2371 16.1184 19.055C15.8352 18.7517 15.5925 18.4281 15.3903 18.1045C15.188 17.7606 14.9858 17.3764 14.7633 16.9112C13.1857 18.7719 11.2037 19.7023 8.81709 19.7023C7.11818 19.7023 5.76309 19.2169 4.77205 18.246C3.78102 17.2752 3.27539 15.9808 3.27539 14.3628C3.27539 12.6437 3.88215 11.2481 5.11588 10.1964C6.34962 9.14471 7.98786 8.61886 10.0711 8.61886C10.7587 8.61886 11.4666 8.67953 12.2149 8.78066C12.9633 8.88178 13.7318 9.04358 14.5408 9.22561V7.74917C14.5408 6.21206 14.2172 5.14012 13.5902 4.51314C12.943 3.88616 11.8509 3.58278 10.2935 3.58278C9.58565 3.58278 8.85754 3.66369 8.10921 3.84571C7.36088 4.02774 6.63277 4.25022 5.92489 4.53337C5.60129 4.67494 5.35858 4.75585 5.21701 4.7963C5.07543 4.83675 4.97431 4.85697 4.89341 4.85697C4.61025 4.85697 4.46868 4.65472 4.46868 4.22999V3.23896C4.46868 2.91535 4.50913 2.67265 4.61025 2.53108C4.71138 2.3895 4.89341 2.24792 5.17656 2.10635C5.88444 1.74229 6.7339 1.43892 7.72493 1.19621C8.71597 0.933286 9.76768 0.811935 10.8801 0.811935C13.2869 0.811935 15.0464 1.35801 16.1791 2.45017C17.2914 3.54233 17.8578 5.2008 17.8578 7.42557V13.9785H17.8982ZM9.68677 17.0528C10.3542 17.0528 11.0419 16.9314 11.77 16.6887C12.4981 16.446 13.1453 16.001 13.6914 15.3943C14.015 15.01 14.2577 14.5853 14.379 14.0999C14.5004 13.6145 14.5813 13.0279 14.5813 12.3403V11.4908C13.9947 11.3493 13.3678 11.2279 12.7206 11.147C12.0733 11.0661 11.4464 11.0257 10.8194 11.0257C9.4643 11.0257 8.47326 11.2886 7.80583 11.8347C7.1384 12.3807 6.8148 13.1493 6.8148 14.1606C6.8148 15.1111 7.0575 15.819 7.56313 16.3044C8.04853 16.8101 8.75642 17.0528 9.68677 17.0528ZM25.9276 19.2371C25.5635 19.2371 25.3208 19.1764 25.159 19.0348C24.9972 18.9135 24.8557 18.6303 24.7343 18.246L19.9814 2.61198C19.86 2.20747 19.7994 1.94455 19.7994 1.80297C19.7994 1.47937 19.9612 1.29734 20.2848 1.29734H22.2668C22.6511 1.29734 22.914 1.35801 23.0556 1.49959C23.2174 1.62094 23.3388 1.90409 23.4601 2.28837L26.858 15.6774L30.0131 2.28837C30.1142 1.88387 30.2356 1.62094 30.3974 1.49959C30.5592 1.37824 30.8423 1.29734 31.2064 1.29734H32.8244C33.2087 1.29734 33.4716 1.35801 33.6334 1.49959C33.7952 1.62094 33.9368 1.90409 34.0177 2.28837L37.2133 15.8392L40.7122 2.28837C40.8336 1.88387 40.9751 1.62094 41.1167 1.49959C41.2785 1.37824 41.5414 1.29734 41.9055 1.29734H43.7864C44.11 1.29734 44.2921 1.45914 44.2921 1.80297C44.2921 1.90409 44.2718 2.00522 44.2516 2.12657C44.2314 2.24792 44.1909 2.40972 44.11 2.6322L39.2358 18.2663C39.1144 18.6708 38.9729 18.9337 38.811 19.055C38.6492 19.1764 38.3863 19.2573 38.0425 19.2573H36.3031C35.9188 19.2573 35.6559 19.1966 35.4941 19.055C35.3323 18.9135 35.1907 18.6505 35.1098 18.246L31.9749 5.2008L28.8603 18.2258C28.7591 18.6303 28.6378 18.8932 28.476 19.0348C28.3142 19.1764 28.031 19.2371 27.667 19.2371H25.9276ZM51.917 19.7832C50.8653 19.7832 49.8135 19.6618 48.8023 19.4191C47.791 19.1764 47.0023 18.9135 46.4764 18.6101C46.1528 18.4281 45.9303 18.2258 45.8494 18.0438C45.7685 17.8618 45.7281 17.6595 45.7281 17.4775V16.446C45.7281 16.0213 45.8899 15.819 46.1932 15.819C46.3146 15.819 46.4359 15.8392 46.5573 15.8797C46.6786 15.9201 46.8607 16.001 47.0629 16.0819C47.7506 16.3853 48.4989 16.628 49.2877 16.7898C50.0967 16.9516 50.8855 17.0325 51.6945 17.0325C52.9687 17.0325 53.9597 16.8101 54.6474 16.3651C55.335 15.9201 55.6991 15.2729 55.6991 14.4437C55.6991 13.8774 55.5171 13.4122 55.153 13.0279C54.7889 12.6437 54.1013 12.2998 53.1103 11.9762L50.1776 11.0661C48.7012 10.6009 47.609 9.91327 46.9416 9.00313C46.2741 8.11323 45.9303 7.12219 45.9303 6.07048C45.9303 5.22102 46.1123 4.47269 46.4764 3.82549C46.8404 3.17828 47.3258 2.61198 47.9326 2.16702C48.5394 1.70184 49.227 1.35801 50.036 1.11531C50.845 0.87261 51.6945 0.771484 52.5844 0.771484C53.0294 0.771484 53.4945 0.79171 53.9395 0.852385C54.4047 0.913061 54.8294 0.993961 55.2541 1.07486C55.6586 1.17599 56.0429 1.27711 56.407 1.39847C56.771 1.51982 57.0542 1.64117 57.2564 1.76252C57.5396 1.92432 57.7418 2.08612 57.8632 2.26815C57.9845 2.42995 58.0452 2.65243 58.0452 2.93558V3.88616C58.0452 4.31089 57.8834 4.53337 57.58 4.53337C57.4182 4.53337 57.1553 4.45247 56.8115 4.29067C55.6586 3.76481 54.3642 3.50188 52.9282 3.50188C51.7754 3.50188 50.8653 3.68391 50.2383 4.06819C49.6113 4.45247 49.2877 5.039 49.2877 5.86823C49.2877 6.43454 49.4899 6.91994 49.8944 7.30422C50.299 7.6885 51.0473 8.07278 52.1192 8.4166L54.9912 9.32674C56.4474 9.79192 57.4991 10.4391 58.1261 11.2684C58.7531 12.0976 59.0565 13.0482 59.0565 14.0999C59.0565 14.9696 58.8744 15.7583 58.5306 16.446C58.1665 17.1337 57.6811 17.7404 57.0542 18.2258C56.4272 18.7314 55.6789 19.0955 54.8092 19.3584C53.899 19.6416 52.9485 19.7832 51.917 19.7832Z" fill="#252F3E"/>
<path id="Vector_2" d="M55.7363 29.6126C49.0822 34.5274 39.4146 37.1364 31.1021 37.1364C19.4524 37.1364 8.95549 32.8284 1.02722 25.6687C0.400235 25.1024 0.96654 24.3339 1.71487 24.7788C10.2903 29.7542 20.8681 32.7678 31.8099 32.7678C39.1921 32.7678 47.3024 31.2306 54.7655 28.0755C55.8779 27.5699 56.8285 28.8036 55.7363 29.6126ZM58.5072 26.4575C57.6577 25.3653 52.8846 25.9316 50.7205 26.1946C50.0733 26.2755 49.9722 25.7092 50.5587 25.2844C54.361 22.6147 60.6106 23.3833 61.3387 24.2732C62.0668 25.1833 61.1365 31.4329 57.5768 34.4262C57.0307 34.8914 56.5049 34.6487 56.7476 34.0419C57.5566 32.0397 59.3566 27.5294 58.5072 26.4575Z" fill="#FF9900"/>
</g>
</g>
<defs>
<clipPath id="clip0_717_2383">
<rect width="61.0801" height="36.5049" fill="white" transform="translate(0.623047 0.750977)"/>
</clipPath>
</defs>
</svg>
