<svg width="48" height="49" viewBox="0 0 48 49" fill="none" xmlns="http://www.w3.org/2000/svg">
<g id="django-icon 1" clip-path="url(#clip0_717_2349)">
<g id="Group">
<path id="Vector" d="M42.7117 0.897461H5.53142C2.65664 0.897461 0.326172 3.22793 0.326172 6.10271V43.283C0.326172 46.1578 2.65664 48.4883 5.53142 48.4883H42.7117C45.5865 48.4883 47.917 46.1578 47.917 43.283V6.10271C47.917 3.22793 45.5865 0.897461 42.7117 0.897461Z" fill="#092E20"/>
<path id="Vector_2" d="M34.9754 18.4093V30.721C34.9754 34.963 34.6651 36.9976 33.734 38.7566C32.8717 40.4467 31.7334 41.5155 29.3885 42.6882L24.4567 40.3431C26.8019 39.2396 27.9399 38.2742 28.6641 36.7907C29.423 35.2734 29.6646 33.5145 29.6646 28.8933V18.4093H34.9754ZM26.5265 10.2075V34.7908C23.802 35.3081 21.8016 35.515 19.6291 35.515C13.1453 35.515 9.76562 32.5838 9.76562 26.9621C9.76562 21.5476 13.3525 18.0302 18.9047 18.0302C19.7668 18.0302 20.422 18.0989 21.2154 18.3058V10.2075H26.5265ZM19.4222 22.3063C16.7322 22.3063 15.1802 23.9618 15.1802 26.8585C15.1802 29.6867 16.6632 31.2385 19.3877 31.2385C19.9737 31.2385 20.4567 31.204 21.2154 31.1007V22.5819C20.5947 22.3752 20.0774 22.3063 19.4222 22.3063ZM34.9754 10.2358V15.6848H29.6646V10.2358H34.9754Z" fill="#FFFFFD"/>
</g>
</g>
<defs>
<clipPath id="clip0_717_2349">
<rect width="47.5908" height="47.5908" fill="white" transform="translate(0.328125 0.897949)"/>
</clipPath>
</defs>
</svg>
