<svg width="49" height="49" viewBox="0 0 49 49" fill="none" xmlns="http://www.w3.org/2000/svg">
<g id="dotnet 1" clip-path="url(#clip0_717_2353)">
<g id="Group">
<path id="Vector" d="M48.0322 0.897461H0.441406V48.4883H48.0322V0.897461Z" fill="#512BD4"/>
<path id="Vector_2" d="M8.92234 31.3028C8.58585 31.3028 8.29982 31.1907 8.06427 30.9664C7.82871 30.7364 7.71094 30.4633 7.71094 30.147C7.71094 29.825 7.82871 29.549 8.06427 29.319C8.29982 29.089 8.58585 28.974 8.92234 28.974C9.26445 28.974 9.55329 29.089 9.78884 29.319C10.03 29.549 10.1506 29.825 10.1506 30.147C10.1506 30.4633 10.03 30.7364 9.78884 30.9664C9.55329 31.1907 9.26445 31.3028 8.92234 31.3028ZM22.3744 31.1131H20.1871L14.4245 22.0219C14.2787 21.7918 14.1581 21.5531 14.0628 21.3059H14.0123L14.021 21.3628L14.029 21.4278L14.0365 21.5009L14.0434 21.5819L14.0526 21.7187L14.0605 21.8735L14.067 22.0464L14.0721 22.2375L14.0759 22.4466L14.0777 22.5961L14.0796 23.0051V31.1131H12.1447V18.7441H14.4749L20.0441 27.6197L20.1817 27.8369L20.2702 27.9797L20.3461 28.1053L20.4095 28.2137L20.4447 28.2763L20.4744 28.3314L20.4984 28.3788H20.532L20.5257 28.34L20.5137 28.2563L20.5028 28.1645L20.4928 28.0647C20.4913 28.0474 20.4897 28.0297 20.4882 28.0117L20.4798 27.8998L20.4723 27.7798L20.4658 27.6518L20.458 27.4446L20.4524 27.2192L20.449 26.9757L20.4479 26.714V18.7441H22.3744V31.1131ZM31.7967 31.1131H25.0247V18.7441H31.5276V20.4865H27.0269V23.9884H31.1743V25.7221H27.0269V29.3793H31.7967V31.1131ZM41.4211 20.4865H37.9552V31.1131H35.9529V20.4865H32.4954V18.7441H41.4211V20.4865Z" fill="white"/>
</g>
</g>
<defs>
<clipPath id="clip0_717_2353">
<rect width="47.5908" height="47.5908" fill="white" transform="translate(0.441406 0.897949)"/>
</clipPath>
</defs>
</svg>
