<svg width="39" height="53" viewBox="0 0 39 53" fill="none" xmlns="http://www.w3.org/2000/svg">
<g id="firebase 1" clip-path="url(#clip0_717_2413)">
<g id="Group">
<path id="Vector" d="M0.748047 42.2189L1.06461 41.7756L16.0395 13.3615L16.0711 13.0607L9.46987 0.661222C8.91681 -0.377456 7.35984 -0.114843 7.17834 1.04788L0.748047 42.2189Z" fill="#FFC24A"/>
<path id="Vector_2" d="M20.8832 22.4399L25.7983 17.406L20.8817 8.02031C20.415 7.13188 19.1119 7.12932 18.6501 8.02031L16.0234 13.0299V13.4566L20.8832 22.4399Z" fill="#F4BD62"/>
<path id="Vector_3" d="M0.748047 42.2189L0.891539 42.0746L1.41289 41.8627L20.5747 22.7721L20.8174 22.1113L16.0374 13.0024L0.748047 42.2189Z" fill="#F6820C"/>
<path id="Vector_4" d="M21.4972 51.8471L38.839 42.1754L33.8868 11.6761C33.7319 10.7218 32.5612 10.3446 31.8782 11.0288L0.748047 42.2193L17.9904 51.8462C19.0801 52.4546 20.4072 52.4549 21.4972 51.8471Z" fill="#FDE068"/>
<path id="Vector_5" d="M38.6828 42.0939L33.7681 11.8261C33.6144 10.8791 32.6409 10.4873 31.9631 11.1663L0.939453 42.1597L17.9924 51.6913C19.0739 52.2951 20.3909 52.2954 21.4726 51.6922L38.6828 42.0939Z" fill="#FCCA3F"/>
<path id="Vector_6" d="M21.4972 51.5621C20.4072 52.17 19.0801 52.1697 17.9904 51.5613L0.886924 42.0726L0.748047 42.2192L17.9904 51.8462C19.0801 52.4546 20.4072 52.4549 21.4972 51.847L38.839 42.1753L38.7966 41.9141L21.4972 51.5621Z" fill="#EEAB37"/>
</g>
</g>
<defs>
<clipPath id="clip0_717_2413">
<rect width="38.1811" height="52.3499" fill="white" transform="translate(0.746094 0.0112305)"/>
</clipPath>
</defs>
</svg>
