<svg width="52" height="51" viewBox="0 0 52 51" fill="none" xmlns="http://www.w3.org/2000/svg">
<g id="github-icon 1" clip-path="url(#clip0_717_2442)">
<g id="Group">
<path id="Vector" d="M26.2615 0.0112305C12.1069 0.0112305 0.628906 11.4871 0.628906 25.6439C0.628906 36.969 7.97343 46.5772 18.1581 49.9666C19.4391 50.2038 19.9094 49.4105 19.9094 48.7335C19.9094 48.1223 19.8856 46.1031 19.8746 43.9612C12.7436 45.5118 11.2388 40.9369 11.2388 40.9369C10.0728 37.9741 8.3928 37.1863 8.3928 37.1863C6.06716 35.5954 8.56811 35.6281 8.56811 35.6281C11.1421 35.809 12.4974 38.2696 12.4974 38.2696C14.7836 42.1882 18.4938 41.0553 19.9565 40.4004C20.1866 38.7437 20.8509 37.6129 21.5839 36.9728C15.8906 36.3247 9.9056 34.1268 9.9056 24.3051C9.9056 21.5066 10.9069 19.22 12.5466 17.4249C12.2805 16.7793 11.4031 14.1722 12.7949 10.6415C12.7949 10.6415 14.9474 9.95264 19.8457 13.269C21.8904 12.701 24.0832 12.4162 26.2615 12.4065C28.4399 12.4162 30.6344 12.701 32.6828 13.269C37.5752 9.95264 39.7247 10.6415 39.7247 10.6415C41.1199 14.1722 40.2421 16.7793 39.976 17.4249C41.6195 19.22 42.6141 21.5066 42.6141 24.3051C42.6141 34.1501 36.6176 36.3179 30.9098 36.9525C31.8292 37.7479 32.6485 39.3078 32.6485 41.6993C32.6485 45.1289 32.6187 47.8892 32.6187 48.7335C32.6187 49.4156 33.0801 50.2149 34.3794 49.9632C44.5585 46.57 51.8937 36.9652 51.8937 25.6439C51.8937 11.4871 40.4174 0.0112305 26.2615 0.0112305ZM10.2292 36.5254C10.1727 36.6528 9.97235 36.691 9.78983 36.6035C9.60392 36.5199 9.4995 36.3463 9.55977 36.2186C9.61495 36.0874 9.81573 36.0509 10.0012 36.1387C10.1876 36.2224 10.2937 36.3977 10.2292 36.5254ZM11.49 37.6505C11.3678 37.7638 11.1288 37.7112 10.9666 37.532C10.799 37.3533 10.7676 37.1144 10.8915 36.9993C11.0176 36.886 11.2493 36.9391 11.4174 37.1178C11.5851 37.2986 11.6178 37.5359 11.49 37.6505ZM12.355 39.0899C12.1979 39.199 11.9411 39.0967 11.7824 38.8688C11.6253 38.6408 11.6253 38.3675 11.7858 38.258C11.9449 38.1484 12.1979 38.2469 12.3588 38.4732C12.5154 38.7049 12.5154 38.9783 12.355 39.0899ZM13.8179 40.757C13.6774 40.9119 13.3781 40.8703 13.1591 40.6589C12.935 40.4522 12.8726 40.1589 13.0135 40.004C13.1557 39.8486 13.4566 39.8923 13.6774 40.102C13.8998 40.3083 13.9677 40.6038 13.8179 40.757ZM15.7085 41.3198C15.6465 41.5205 15.3583 41.6118 15.068 41.5265C14.778 41.4386 14.5883 41.2035 14.6469 41.0006C14.7072 40.7985 14.9966 40.7034 15.2891 40.7947C15.5786 40.8821 15.7687 41.1156 15.7085 41.3198ZM17.8601 41.5585C17.8673 41.7699 17.6211 41.9452 17.3163 41.949C17.0099 41.9558 16.762 41.7847 16.7586 41.5767C16.7586 41.3632 16.9993 41.1896 17.3057 41.1845C17.6105 41.1786 17.8601 41.3484 17.8601 41.5585ZM19.9738 41.4775C20.0103 41.6838 19.7985 41.8956 19.4958 41.952C19.1983 42.0063 18.9228 41.879 18.885 41.6744C18.8481 41.463 19.0637 41.2512 19.3609 41.1965C19.6639 41.1438 19.9352 41.2678 19.9738 41.4775Z" fill="#161614"/>
</g>
</g>
<defs>
<clipPath id="clip0_717_2442">
<rect width="51.2648" height="50.0633" fill="white" transform="translate(0.626953 0.0107422)"/>
</clipPath>
</defs>
</svg>
