<svg width="62" height="50" viewBox="0 0 62 50" fill="none" xmlns="http://www.w3.org/2000/svg">
<g id="google-cloud 1" clip-path="url(#clip0_717_2387)">
<g id="Group">
<path id="Vector" d="M41.3846 14.3677L46.6969 9.05534L47.0509 6.81849C37.3704 -1.98398 21.982 -0.985876 13.2555 8.90112C10.8315 11.6472 9.03317 15.0707 8.07422 18.606L9.97685 18.3379L20.6013 16.5859L21.4215 15.747C26.1475 10.5567 34.1384 9.85841 39.5951 14.2746L41.3846 14.3677Z" fill="#EA4335"/>
<path id="Vector_2" d="M54.2606 18.45C53.0395 13.9534 50.5327 9.91104 47.0471 6.81885L39.5912 14.2747C42.7395 16.8472 44.5331 20.7226 44.4562 24.7874V26.1109C48.1209 26.1109 51.092 29.0818 51.092 32.7464C51.092 36.4113 48.1209 39.3078 44.4562 39.3078H31.1662L29.8613 40.7244V48.6834L31.1662 49.9322H44.4562C53.9885 50.0064 61.7761 42.4138 61.8504 32.8816C61.8952 27.1037 59.0465 21.6871 54.2606 18.45Z" fill="#4285F4"/>
<path id="Vector_3" d="M17.8981 49.9324H31.1695V39.3078H17.8981C16.9525 39.3075 16.0368 39.1044 15.1769 38.7114L13.2941 39.2891L7.94451 44.6015L7.47852 46.4096C10.4786 48.6748 14.1389 49.9486 17.8981 49.9324Z" fill="#34A853"/>
<path id="Vector_4" d="M17.8955 15.4674C8.36297 15.5242 0.681778 23.298 0.738594 32.8303C0.770345 38.1534 3.25642 43.1642 7.47587 46.4091L15.1742 38.711C11.8343 37.202 10.3501 33.2714 11.8591 29.9317C13.3678 26.5919 17.2986 25.1078 20.6382 26.6165C22.1099 27.2814 23.2885 28.4602 23.9533 29.9317L31.6517 22.2336C28.3762 17.9516 23.2866 15.4481 17.8955 15.4674Z" fill="#FBBC05"/>
</g>
</g>
<defs>
<clipPath id="clip0_717_2387">
<rect width="61.1134" height="49.1772" fill="white" transform="translate(0.736328 0.804199)"/>
</clipPath>
</defs>
</svg>
