<svg width="49" height="49" viewBox="0 0 49 49" fill="none" xmlns="http://www.w3.org/2000/svg">
<g id="javascript 1" clip-path="url(#clip0_715_2223)">
<g id="Group">
<path id="Vector" d="M0.875 0.897461H48.4658V48.4883H0.875V0.897461Z" fill="#F7DF1E"/>
<path id="Vector_2" d="M13.3887 40.6681L17.0307 38.4641C17.7333 39.7098 18.3725 40.7639 19.9056 40.7639C21.3752 40.7639 22.3017 40.189 22.3017 37.953V22.7466H26.774V38.0162C26.774 42.6484 24.0588 44.7568 20.0973 44.7568C16.5196 44.7568 14.4428 42.9039 13.3887 40.6678" fill="black"/>
<path id="Vector_3" d="M29.2031 40.1883L32.8447 38.0799C33.8033 39.6454 35.0492 40.7953 37.2533 40.7953C39.1064 40.7953 40.2881 39.8688 40.2881 38.591C40.2881 37.0576 39.0742 36.5144 37.0296 35.6202L35.9118 35.1407C32.6851 33.7673 30.5447 32.0422 30.5447 28.4003C30.5447 25.046 33.1003 22.4902 37.0937 22.4902C39.9369 22.4902 41.9814 23.4807 43.4508 26.0683L39.9686 28.3044C39.2019 26.9308 38.3715 26.3878 37.0938 26.3878C35.784 26.3878 34.9533 27.2184 34.9533 28.3044C34.9533 29.6462 35.784 30.1894 37.7005 31.02L38.8185 31.4992C42.6201 33.1285 44.7606 34.7895 44.7606 38.5271C44.7606 42.5525 41.598 44.7565 37.3492 44.7565C33.1963 44.7565 30.5127 42.776 29.2031 40.1883Z" fill="black"/>
</g>
</g>
<defs>
<clipPath id="clip0_715_2223">
<rect width="47.5908" height="47.5908" fill="white" transform="translate(0.875 0.897949)"/>
</clipPath>
</defs>
</svg>
