<svg width="41" height="54" viewBox="0 0 41 54" fill="none" xmlns="http://www.w3.org/2000/svg">
<g id="java 1" clip-path="url(#clip0_715_2286)">
<g id="Group">
<path id="Vector" d="M13.5778 41.7979C13.5778 41.7979 11.5596 42.9715 15.0141 43.3687C19.1991 43.8461 21.338 43.7776 25.9499 42.9047C25.9499 42.9047 27.1624 43.665 28.8558 44.3235C18.5171 48.7545 5.45731 44.0669 13.5778 41.7979Z" fill="#5382A1"/>
<path id="Vector_2" d="M12.3131 36.0161C12.3131 36.0161 10.0495 37.6917 13.5066 38.0493C17.9771 38.5105 21.5076 38.5482 27.6168 37.3718C27.6168 37.3718 28.4617 38.2285 29.7904 38.6969C17.2903 42.3521 3.36747 38.9852 12.3131 36.0161Z" fill="#5382A1"/>
<path id="Vector_3" d="M22.9655 26.2073C25.5129 29.1402 22.2961 31.7795 22.2961 31.7795C22.2961 31.7795 28.7645 28.4403 25.7939 24.2589C23.0194 20.3594 20.8917 18.4219 32.4101 11.7417C32.4101 11.7417 14.3301 16.2572 22.9655 26.2073Z" fill="#E76F00"/>
<path id="Vector_4" d="M36.6384 46.0746C36.6384 46.0746 38.1319 47.3052 34.9935 48.2572C29.0259 50.065 10.1556 50.6109 4.91356 48.3293C3.02916 47.5095 6.56293 46.3718 7.67452 46.1331C8.8338 45.8817 9.49628 45.9286 9.49628 45.9286C7.40065 44.4523 -4.04906 48.8273 3.6804 50.0803C24.7598 53.4987 42.1061 48.5409 36.6384 46.0746Z" fill="#5382A1"/>
<path id="Vector_5" d="M14.5491 30.0247C14.5491 30.0247 4.95044 32.3045 11.1499 33.1324C13.7676 33.4829 18.9857 33.4036 23.8463 32.9964C27.8187 32.6613 31.8074 31.9488 31.8074 31.9488C31.8074 31.9488 30.4067 32.5487 29.3933 33.2406C19.6461 35.8042 0.816245 34.6116 6.23711 31.9894C10.8216 29.7733 14.5491 30.0247 14.5491 30.0247Z" fill="#5382A1"/>
<path id="Vector_6" d="M31.7675 39.6495C41.676 34.5007 37.0947 29.5527 33.897 30.2193C33.1133 30.3825 32.7638 30.5238 32.7638 30.5238C32.7638 30.5238 33.0548 30.068 33.6105 29.8707C39.9365 27.6467 44.8017 36.4302 31.5684 39.909C31.5684 39.909 31.7217 39.7721 31.7675 39.6495Z" fill="#5382A1"/>
<path id="Vector_7" d="M25.7921 0.955078C25.7921 0.955078 31.2796 6.44442 20.5875 14.8855C12.0135 21.6566 18.6324 25.5174 20.5839 29.9284C15.5791 25.4129 11.9063 21.4379 14.3703 17.7383C17.987 12.3076 28.0062 9.67456 25.7921 0.955078Z" fill="#E76F00"/>
<path id="Vector_8" d="M15.5232 53.6018C25.0341 54.2106 39.6392 53.264 39.9851 48.7637C39.9851 48.7637 39.3202 50.4697 32.1249 51.8246C24.0071 53.3522 13.9949 53.1739 8.05664 52.1948C8.05664 52.1948 9.27229 53.2009 15.5232 53.6018Z" fill="#5382A1"/>
</g>
</g>
<defs>
<clipPath id="clip0_715_2286">
<rect width="39.1455" height="52.9076" fill="white" transform="translate(0.953125 0.897949)"/>
</clipPath>
</defs>
</svg>
