<svg width="48" height="49" viewBox="0 0 48 49" fill="none" xmlns="http://www.w3.org/2000/svg">
<g id="jira 1" clip-path="url(#clip0_717_2445)">
<g id="Group">
<path id="Vector" d="M45.8099 0.597168H22.9531C22.9531 3.33366 24.0402 5.95807 25.9752 7.89306C27.9102 9.82805 30.5346 10.9151 33.2711 10.9151H37.4815V14.9802C37.4852 20.6735 42.0996 25.2879 47.7929 25.2915V2.58012C47.7929 1.48496 46.9051 0.597168 45.8099 0.597168Z" fill="#2684FF"/>
<path id="Vector_2" d="M34.4994 11.9858H11.6426C11.6462 17.6791 16.2606 22.2935 21.9539 22.2972H26.1644V26.3754C26.1717 32.0687 30.789 36.6802 36.4823 36.6802V13.9688C36.4823 12.8736 35.5945 11.9858 34.4994 11.9858Z" fill="url(#paint0_linear_717_2445)"/>
<path id="Vector_3" d="M23.183 23.3682H0.326172C0.326172 29.0666 4.94568 33.6861 10.6441 33.6861H14.8678V37.7512C14.8714 43.4393 19.4778 48.0516 25.1659 48.0625V25.3511C25.1659 24.256 24.2781 23.3682 23.183 23.3682Z" fill="url(#paint1_linear_717_2445)"/>
</g>
</g>
<defs>
<linearGradient id="paint0_linear_717_2445" x1="2446.71" y1="15.9519" x2="1480.32" y2="1024.33" gradientUnits="userSpaceOnUse">
<stop offset="0.18" stop-color="#0052CC"/>
<stop offset="1" stop-color="#2684FF"/>
</linearGradient>
<linearGradient id="paint1_linear_717_2445" x1="2500.83" y1="34.6047" x2="1382.95" y2="1134.43" gradientUnits="userSpaceOnUse">
<stop offset="0.18" stop-color="#0052CC"/>
<stop offset="1" stop-color="#2684FF"/>
</linearGradient>
<clipPath id="clip0_717_2445">
<rect width="47.5908" height="47.5908" fill="white" transform="translate(0.328125 0.597168)"/>
</clipPath>
</defs>
</svg>
