<svg width="29" height="60" viewBox="0 0 29 60" fill="none" xmlns="http://www.w3.org/2000/svg">
<g id="mongodb-icon 1" clip-path="url(#clip0_717_2427)">
<g id="Group">
<path id="Vector" d="M19.4341 7.17784C16.9691 4.25327 14.8465 1.28301 14.4129 0.666108C14.3672 0.620412 14.2988 0.620412 14.2531 0.666108C13.8195 1.28301 11.6969 4.25327 9.23193 7.17784C-11.9254 34.1615 12.5642 52.3716 12.5642 52.3716L12.7696 52.5087C12.9522 55.3189 13.4086 59.3632 13.4086 59.3632H14.3216H15.2345C15.2345 59.3632 15.691 55.3418 15.8736 52.5087L16.079 52.3488C16.1018 52.3716 40.5915 34.1615 19.4341 7.17784ZM14.3216 51.9603C14.3216 51.9603 13.2261 51.0235 12.9294 50.5439V50.4979L14.2531 21.1153C14.2531 21.0239 14.3901 21.0239 14.3901 21.1153L15.7138 50.4979V50.5439C15.4171 51.0235 14.3216 51.9603 14.3216 51.9603Z" fill="#01EC64"/>
</g>
</g>
<defs>
<clipPath id="clip0_717_2427">
<rect width="27.4232" height="58.81" fill="white" transform="translate(0.619141 0.631836)"/>
</clipPath>
</defs>
</svg>
