<svg width="73" height="49" viewBox="0 0 73 49" fill="none" xmlns="http://www.w3.org/2000/svg">
<g id="mysql 1" clip-path="url(#clip0_717_2364)">
<g id="Group">
<path id="Vector" d="M21.8941 32.1591L24.0637 39.1984C24.5511 40.7966 24.7543 41.9123 24.673 42.5482C25.8596 39.3704 26.6886 35.9073 27.1602 32.1591H29.7688C28.6472 38.2612 27.1677 42.6956 25.3314 45.4619C23.9005 47.5934 22.3331 48.6592 20.6262 48.6592C20.1712 48.6592 19.6101 48.5218 18.9443 48.2487V46.7777C19.2696 46.8255 19.6513 46.851 20.0902 46.851C20.8865 46.851 21.5282 46.6303 22.0164 46.1899C22.6011 45.6532 22.8937 45.0501 22.8937 44.3816C22.8937 43.9251 22.6655 42.9882 22.2111 41.571L19.1883 32.1591H21.8941ZM5.29051 27.8325L9.26427 39.9566H9.28865L13.2868 27.8325H16.5533C17.2685 33.8451 17.6909 39.3466 17.8207 44.3331H15.0667C14.9698 39.6716 14.7013 35.2883 14.2624 31.1824H14.2382L10.0445 44.3331H7.94738L3.77913 31.1824H3.75458C3.44529 35.1256 3.25072 39.5089 3.16957 44.3331H0.658203C0.820493 38.4661 1.22664 32.9664 1.87665 27.8325H5.29051Z" fill="#00758F"/>
<path id="Vector_2" d="M49.8056 27.5874C54.0799 27.5874 56.2173 30.3183 56.2173 35.7772C56.2173 38.7437 55.5745 40.9843 54.2902 42.4982C54.0587 42.7748 53.8029 43.0137 53.5336 43.2352L56.5584 44.7308L56.5555 44.7306L55.4815 46.5853L51.5423 44.2868C50.8894 44.4802 50.1709 44.5768 49.388 44.5768C47.2892 44.5768 45.7216 43.9651 44.685 42.7434C43.5472 41.3918 42.9788 39.264 42.9788 36.3636C42.9788 33.414 43.6203 31.1817 44.905 29.666C46.075 28.2796 47.709 27.5874 49.8056 27.5874ZM36.7162 27.6115C38.2439 27.6115 39.6332 28.0203 40.8843 28.835L40.2488 30.2511C39.1782 29.796 38.1224 29.5675 37.0816 29.5675C36.237 29.5675 35.5861 29.7708 35.1324 30.1798C34.6761 30.5853 34.394 31.1071 34.394 31.7431C34.394 32.7204 35.0903 33.568 36.3759 34.2841C36.7218 34.4722 37.1722 34.723 37.6351 34.9828L37.731 35.0367C37.747 35.0457 37.763 35.0547 37.7791 35.0637L37.8752 35.1178C37.8912 35.1268 37.9072 35.1358 37.9232 35.1449L38.0191 35.1989C38.9924 35.7476 39.908 36.2713 39.908 36.2713C41.1936 37.1838 41.8343 38.1567 41.8343 39.7591C41.8343 41.1585 41.3215 42.3073 40.2993 43.2061C39.2763 44.101 37.9019 44.5497 36.1809 44.5497C34.5712 44.5497 33.0112 44.0333 31.5 43.009L32.2069 41.5916C33.5074 42.2434 34.6842 42.5689 35.7408 42.5689C36.7319 42.5689 37.5077 42.3477 38.0689 41.9108C38.6288 41.4706 38.9645 40.8568 38.9645 40.0782C38.9645 39.0985 38.283 38.261 37.0327 37.5585C36.7081 37.3799 36.2923 37.1466 35.8622 36.9035L35.7665 36.8494C35.5906 36.7498 35.4133 36.6493 35.2398 36.5506L35.1456 36.4971C34.3014 36.0169 33.5715 35.5973 33.5715 35.5973C32.3216 34.6832 31.695 33.7023 31.695 32.0861C31.695 30.7494 32.1623 29.669 33.0957 28.847C34.0312 28.0233 35.2382 27.6115 36.7162 27.6115ZM61.2406 27.8323V42.303H66.4326V44.3328H58.6075V27.8323H61.2406ZM69.3177 42.3094V42.6523H68.7467V44.3311H68.3104V42.6523H67.7173V42.3094H69.3177ZM70.3718 42.3094L70.9198 43.6874L71.4232 42.3094H72.0418V44.3311H71.6306V42.7924L71.0574 44.3311H70.7609L70.187 42.7924H70.1649V44.3311H69.7757V42.3094H70.3718ZM49.5367 29.6167C47.0178 29.6167 45.7577 31.6955 45.7577 35.8504C45.7577 38.2303 46.0916 39.9563 46.7582 41.0319C47.3755 42.0275 48.3424 42.5242 49.659 42.5242C52.1779 42.5242 53.438 40.4293 53.438 36.2411C53.438 33.8944 53.1041 32.1833 52.4383 31.1072C51.8202 30.1139 50.8537 29.6167 49.5367 29.6167Z" fill="#F29111"/>
<path id="Vector_3" d="M42.9341 1.07225C43.7697 -0.980949 46.6914 0.573857 47.8253 1.2912C48.1031 1.47053 48.4218 1.84965 48.7404 1.9898C49.2375 2.00939 49.7341 2.04815 50.232 2.06903C51.1658 2.2884 52.0406 2.46774 52.7764 2.8869C56.1964 4.9009 58.4225 6.95325 60.4715 10.3432C60.9091 11.0613 61.1279 11.8383 61.4856 12.6153C61.9819 13.7735 62.5397 14.9893 63.1158 16.0846C63.3736 16.6037 63.5733 17.1811 63.9315 17.6196C64.0712 17.8201 64.4685 17.8791 64.7059 17.999C65.3623 18.3387 66.1576 18.5967 66.7749 18.9955C67.9279 19.7143 69.0427 20.571 70.056 21.4479C70.4337 21.7865 70.6911 22.2657 71.051 22.6238V22.8045C70.7315 22.9025 70.4133 23.0029 70.0946 23.0832C69.3987 23.2621 68.7823 23.2216 68.1072 23.4005C67.69 23.5215 67.1721 23.6812 66.7346 23.7217C66.7541 23.7413 66.7749 23.7624 66.7749 23.7624C67.0324 24.4979 68.425 25.0961 69.0618 25.5359C69.8355 26.0941 70.5522 26.7714 71.1291 27.5488C71.3284 27.7473 71.5276 27.9278 71.726 28.1257C71.8645 28.3262 71.9036 28.5854 72.0438 28.7643V28.8247C71.8885 28.7699 71.7769 28.6654 71.6709 28.556L71.6078 28.4902C71.5447 28.4244 71.4809 28.3602 71.4083 28.307C70.9694 28.0072 70.5335 27.6486 70.0946 27.3699C69.3401 26.8912 68.4649 26.6133 67.69 26.1327C67.252 25.8537 66.8344 25.5359 66.4168 25.2167C66.0382 24.9369 65.6215 24.3994 65.3836 24.0007C65.2434 23.7804 65.2243 23.5215 65.0641 23.3622C65.0927 23.096 65.3366 23.0169 65.5826 22.9519L65.6393 22.9371C65.7241 22.915 65.8072 22.893 65.8798 22.8639C66.9134 22.4249 68.1459 22.2657 69.7373 22.3056C69.6774 21.906 68.6829 21.4081 68.3655 21.1689C67.7283 20.7096 67.0536 20.2304 66.3777 19.8124C66.0195 19.5934 65.4023 19.4337 65.0054 19.2548C64.4684 19.0353 63.2751 18.816 62.9777 18.398C62.4722 17.7391 62.1092 16.9532 61.7567 16.1592L61.6607 15.9425C61.6287 15.8703 61.5967 15.7981 61.5647 15.726C61.1479 14.77 60.6304 13.7732 60.2128 12.7943C59.9944 12.3168 59.8942 11.8977 59.655 11.4397C58.2042 8.62916 56.0566 6.27608 53.4527 4.62117C52.5971 4.08274 51.6429 3.58435 50.5897 3.2457C49.9928 3.06551 49.2765 3.16519 48.6405 3.02675H48.2221C47.8648 2.92622 47.5665 2.54752 47.2878 2.34774C46.6723 1.92986 46.0558 1.64914 45.3196 1.35096C45.0617 1.23126 44.325 0.952681 44.068 1.17205C43.9087 1.2121 43.8279 1.27216 43.7889 1.4319C43.6304 1.67045 43.7697 2.02954 43.8683 2.24935C44.167 2.8866 44.5842 3.2653 44.9627 3.80373C45.2996 4.28124 45.7181 4.81968 45.9568 5.33894C46.4722 6.45499 46.7122 7.6916 47.1897 8.80765C47.3669 9.22723 47.6468 9.70475 47.9047 10.0834C48.1231 10.3838 48.5203 10.601 48.6405 10.9814C48.8802 11.3801 48.282 12.6959 48.1435 13.1138C47.6256 14.7488 47.7259 17.0215 48.3223 18.4389C48.333 18.4637 48.3436 18.4886 48.3541 18.5137L48.3859 18.5893C48.6037 19.1083 48.8368 19.6673 49.4159 19.8125C49.4558 19.7729 49.4159 19.7937 49.4949 19.7729C49.6351 18.6759 49.6746 17.6194 50.0527 16.7611C50.2711 16.2245 50.7074 15.8451 51.0065 15.407C51.2057 15.5263 51.2057 15.8862 51.3247 16.1244C51.5834 16.742 51.8613 17.4192 52.1803 18.0387C52.835 19.3145 53.5717 20.5513 54.4065 21.6673C54.6861 22.0658 55.0828 22.5046 55.4406 22.8637C55.5999 23.0027 55.7783 23.083 55.8981 23.2619H55.9372V23.3222C55.3407 23.1022 54.9626 22.4852 54.4868 22.1249C53.5912 21.4477 52.5185 20.4307 51.9012 19.4548C51.6429 18.8947 51.3638 18.3577 51.0855 17.8003V17.76C50.9666 17.9193 51.0065 18.0773 50.947 18.3183C50.6887 19.3145 50.8875 20.451 49.9928 20.8092C48.9787 21.2289 48.2221 20.132 47.9047 19.6337C46.8902 17.9792 46.6124 15.1882 47.3278 12.9352C47.4867 12.4364 47.5083 11.8383 47.7858 11.44C47.7259 11.0801 47.4484 10.9817 47.2879 10.761C47.0096 10.384 46.7712 9.94486 46.5533 9.52613C46.1348 8.70826 45.837 7.73108 45.5192 6.854C45.3795 6.49575 45.3395 6.13623 45.2002 5.79715C44.9627 5.2796 44.5247 4.76033 44.1869 4.30241C43.7294 3.64428 42.3971 2.36891 42.9341 1.07225ZM49.4554 4.97825C49.5085 5.0315 49.5726 5.07807 49.639 5.12387L49.7191 5.17884C49.8257 5.25264 49.929 5.33051 49.9924 5.4366C50.0927 5.57675 50.1114 5.71519 50.2316 5.85576C50.2316 6.33498 50.0927 6.65362 49.8123 6.85212C49.8123 6.85212 49.7931 6.873 49.7736 6.89259C49.6147 6.57311 49.4754 6.25534 49.3152 5.93628C49.1181 5.65769 48.8394 5.43661 48.6788 5.11841H48.6401V5.07837C48.8802 5.01915 49.1181 4.97825 49.4554 4.97825Z" fill="#00758F"/>
</g>
</g>
<defs>
<clipPath id="clip0_717_2364">
<rect width="71.3862" height="48.6597" fill="white" transform="translate(0.658203 0.050293)"/>
</clipPath>
</defs>
</svg>
