<svg width="72" height="45" viewBox="0 0 72 45" fill="none" xmlns="http://www.w3.org/2000/svg">
<g id="nodejs 1" clip-path="url(#clip0_717_2471)">
<g id="Group">
<path id="Vector" d="M35.8221 44.0965C35.5812 44.0965 35.3564 44.0323 35.1477 43.9198L33.012 42.6513C32.6909 42.4747 32.8515 42.4105 32.9478 42.3784C33.3814 42.2338 33.4616 42.2017 33.9112 41.9448C33.9594 41.9127 34.0236 41.9288 34.0718 41.9609L35.7097 42.9404C35.7739 42.9725 35.8542 42.9725 35.9023 42.9404L42.3092 39.2311C42.3734 39.199 42.4055 39.1348 42.4055 39.0545V31.6521C42.4055 31.5718 42.3734 31.5076 42.3092 31.4755L35.9023 27.7823C35.8381 27.7502 35.7578 27.7502 35.7097 27.7823L29.3028 31.4755C29.2386 31.5076 29.2065 31.5879 29.2065 31.6521V39.0545C29.2065 39.1187 29.2386 39.199 29.3028 39.2311L31.0531 40.2427C32.0004 40.7245 32.5946 40.1625 32.5946 39.6005V32.2944C32.5946 32.1981 32.6748 32.1017 32.7872 32.1017H33.6062C33.7025 32.1017 33.7988 32.182 33.7988 32.2944V39.6005C33.7988 40.869 33.1084 41.6076 31.9041 41.6076C31.5348 41.6076 31.2457 41.6076 30.4268 41.2062L28.7408 40.2427C28.3233 40.0019 28.0664 39.5523 28.0664 39.0706V31.6682C28.0664 31.1865 28.3233 30.7368 28.7408 30.496L35.1477 26.7868C35.5491 26.562 36.095 26.562 36.4965 26.7868L42.9033 30.496C43.3208 30.7368 43.5777 31.1865 43.5777 31.6682V39.0706C43.5777 39.5523 43.3208 40.0019 42.9033 40.2427L36.4965 43.952C36.2877 44.0483 36.0469 44.0965 35.8221 44.0965ZM37.7971 39.0063C34.9871 39.0063 34.409 37.7218 34.409 36.6299C34.409 36.5335 34.4893 36.4372 34.6017 36.4372H35.4367C35.533 36.4372 35.6133 36.5014 35.6133 36.5977C35.7418 37.4488 36.1111 37.8663 37.8132 37.8663C39.162 37.8663 39.74 37.5612 39.74 36.8386C39.74 36.4211 39.5795 36.116 37.476 35.9073C35.7257 35.7307 34.6338 35.3453 34.6338 33.9483C34.6338 32.6477 35.7257 31.8769 37.5562 31.8769C39.6116 31.8769 40.6232 32.5834 40.7516 34.1249C40.7516 34.1731 40.7356 34.2213 40.7035 34.2694C40.6713 34.3016 40.6232 34.3337 40.575 34.3337H39.74C39.6597 34.3337 39.5795 34.2694 39.5634 34.1892C39.3707 33.306 38.8729 33.017 37.5562 33.017C36.079 33.017 35.9023 33.5308 35.9023 33.9162C35.9023 34.3818 36.1111 34.5264 38.1022 34.7833C40.0772 35.0402 41.0085 35.4095 41.0085 36.7904C40.9925 38.2035 39.8364 39.0063 37.7971 39.0063Z" fill="#539E43"/>
<path id="Vector_2" d="M15.9438 15.1456C15.9438 14.8565 15.7833 14.5836 15.5263 14.4391L8.71808 10.5211C8.60568 10.4569 8.47722 10.4247 8.34876 10.4087H8.28453C8.15607 10.4087 8.02761 10.4569 7.91521 10.5211L1.10694 14.4391C0.850026 14.5836 0.689453 14.8565 0.689453 15.1456L0.70551 25.6791C0.70551 25.8236 0.785797 25.9682 0.914255 26.0324C1.04271 26.1127 1.20328 26.1127 1.31569 26.0324L5.36211 23.7201C5.61903 23.5756 5.7796 23.3027 5.7796 23.0136V18.0841C5.7796 17.795 5.94017 17.5221 6.19709 17.3775L7.91521 16.382C8.04367 16.3017 8.18819 16.2696 8.3327 16.2696C8.47722 16.2696 8.62173 16.3017 8.73413 16.382L10.4523 17.3775C10.7092 17.5221 10.8697 17.795 10.8697 18.0841V23.0136C10.8697 23.3027 11.0303 23.5756 11.2872 23.7201L15.3337 26.0324C15.4621 26.1127 15.6227 26.1127 15.7512 26.0324C15.8796 25.9682 15.9599 25.8236 15.9599 25.6791L15.9438 15.1456Z" fill="#333333"/>
<path id="Vector_3" d="M48.6674 0.645828C48.539 0.581599 48.3784 0.581599 48.266 0.645828C48.1375 0.726114 48.0572 0.854572 48.0572 0.999087V11.4363C48.0572 11.5326 48.0091 11.629 47.9127 11.6932C47.8164 11.7414 47.72 11.7414 47.6237 11.6932L45.9216 10.7137C45.6647 10.5692 45.3596 10.5692 45.1027 10.7137L38.2944 14.6477C38.0375 14.7923 37.877 15.0652 37.877 15.3543V23.2063C37.877 23.4953 38.0375 23.7683 38.2944 23.9128L45.1027 27.8468C45.3596 27.9913 45.6647 27.9913 45.9216 27.8468L52.7299 23.9128C52.9868 23.7683 53.1474 23.4953 53.1474 23.2063V3.63248C53.1474 3.32739 52.9868 3.05442 52.7299 2.9099L48.6674 0.645828ZM48.0412 20.621C48.0412 20.7013 48.0091 20.7656 47.9448 20.7977L45.6165 22.1465C45.5523 22.1786 45.472 22.1786 45.4078 22.1465L43.0795 20.7977C43.0153 20.7656 42.9832 20.6853 42.9832 20.621V17.9234C42.9832 17.8431 43.0153 17.7789 43.0795 17.7468L45.4078 16.398C45.472 16.3659 45.5523 16.3659 45.6165 16.398L47.9448 17.7468C48.0091 17.7789 48.0412 17.8592 48.0412 17.9234V20.621Z" fill="#333333"/>
<g id="Group_2">
<path id="Vector_4" d="M71.3224 17.859C71.5793 17.7145 71.7238 17.4415 71.7238 17.1525V15.2417C71.7238 14.9526 71.5632 14.6797 71.3224 14.5351L64.5623 10.6172C64.3053 10.4727 64.0003 10.4727 63.7433 10.6172L56.9351 14.5512C56.6782 14.6957 56.5176 14.9687 56.5176 15.2577V23.1097C56.5176 23.3987 56.6782 23.6717 56.9351 23.8162L63.6952 27.67C63.9521 27.8145 64.2572 27.8145 64.498 27.67L68.5926 25.3898C68.7211 25.3256 68.8014 25.1811 68.8014 25.0366C68.8014 24.8921 68.7211 24.7476 68.5926 24.6833L61.7522 20.7493C61.6238 20.669 61.5435 20.5406 61.5435 20.396V17.9393C61.5435 17.7948 61.6238 17.6502 61.7522 17.586L63.8879 16.3657C64.0163 16.2854 64.1769 16.2854 64.3053 16.3657L66.441 17.586C66.5694 17.6663 66.6497 17.7948 66.6497 17.9393V19.8661C66.6497 20.0107 66.73 20.1552 66.8584 20.2194C66.9869 20.2997 67.1475 20.2997 67.2759 20.2194L71.3224 17.859Z" fill="#333333"/>
<path id="Vector_5" d="M64.0469 17.4899C64.0951 17.4578 64.1593 17.4578 64.2075 17.4899L65.5081 18.2446C65.5563 18.2767 65.5884 18.3249 65.5884 18.3891V19.8985C65.5884 19.9627 65.5563 20.0109 65.5081 20.043L64.2075 20.7977C64.1593 20.8298 64.0951 20.8298 64.0469 20.7977L62.7463 20.043C62.6981 20.0109 62.666 19.9627 62.666 19.8985V18.3891C62.666 18.3249 62.6981 18.2767 62.7463 18.2446L64.0469 17.4899Z" fill="#539E43"/>
</g>
<g id="Group_3">
<path id="Vector_6" d="M27.332 10.6494C27.0751 10.5049 26.77 10.5049 26.5131 10.6494L19.753 14.5513C19.4961 14.6958 19.3516 14.9688 19.3516 15.2578V23.0777C19.3516 23.3667 19.5121 23.6397 19.753 23.7842L26.5131 27.6861C26.77 27.8307 27.0751 27.8307 27.332 27.6861L34.0921 23.7842C34.349 23.6397 34.4935 23.3667 34.4935 23.0777V15.2578C34.4935 14.9688 34.333 14.6958 34.0921 14.5513L27.332 10.6494Z" fill="url(#paint0_linear_717_2471)"/>
<g id="Mask group">
<mask id="mask0_717_2471" style="mask-type:luminance" maskUnits="userSpaceOnUse" x="19" y="10" width="16" height="18">
<g id="Group_4">
<path id="Vector_7" d="M27.334 10.6489C27.0771 10.5044 26.772 10.5044 26.515 10.6489L19.7549 14.5508C19.498 14.6953 19.3535 14.9683 19.3535 15.2573V23.0772C19.3535 23.3663 19.5141 23.6392 19.7549 23.7837L26.515 27.6857C26.772 27.8302 27.0771 27.8302 27.334 27.6857L34.0941 23.7837C34.351 23.6392 34.4955 23.3663 34.4955 23.0772V15.2573C34.4955 14.9683 34.3349 14.6953 34.0941 14.5508L27.334 10.6489Z" fill="white"/>
</g>
</mask>
<g mask="url(#mask0_717_2471)">
<g id="Group_5">
<path id="Vector_8" d="M34.1082 14.5501L27.316 10.6482C27.2517 10.616 27.1715 10.5839 27.1072 10.5679L19.4961 23.6064C19.5603 23.6866 19.6406 23.7509 19.7209 23.799L26.5131 27.701C26.7058 27.8134 26.9306 27.8455 27.1393 27.7812L34.2848 14.7106C34.2366 14.6464 34.1724 14.5982 34.1082 14.5501Z" fill="url(#paint1_linear_717_2471)"/>
</g>
</g>
</g>
<g id="Mask group_2">
<mask id="mask1_717_2471" style="mask-type:luminance" maskUnits="userSpaceOnUse" x="19" y="10" width="16" height="18">
<g id="Group_6">
<path id="Vector_9" d="M27.334 10.6489C27.0771 10.5044 26.772 10.5044 26.515 10.6489L19.7549 14.5508C19.498 14.6953 19.3535 14.9683 19.3535 15.2573V23.0772C19.3535 23.3663 19.5141 23.6392 19.7549 23.7837L26.515 27.6857C26.772 27.8302 27.0771 27.8302 27.334 27.6857L34.0941 23.7837C34.351 23.6392 34.4955 23.3663 34.4955 23.0772V15.2573C34.4955 14.9683 34.3349 14.6953 34.0941 14.5508L27.334 10.6489Z" fill="white"/>
</g>
</mask>
<g mask="url(#mask1_717_2471)">
<g id="Group_7">
<g id="Group_8">
<path id="Vector_10" fill-rule="evenodd" clip-rule="evenodd" d="M34.1251 23.7848C34.3178 23.6724 34.4623 23.4798 34.5266 23.271L27.076 10.5537C26.8833 10.5216 26.6746 10.5376 26.4979 10.65L19.7539 14.5359L27.0278 27.7992C27.1242 27.7831 27.2366 27.751 27.3329 27.7028L34.1251 23.7848Z" fill="url(#paint2_linear_717_2471)"/>
<path id="Vector_11" fill-rule="evenodd" clip-rule="evenodd" d="M34.1242 23.7848L27.3481 27.6867C27.2517 27.7349 27.1554 27.767 27.043 27.783L27.1714 28.0239L34.6862 23.6724V23.576L34.4935 23.2549C34.4614 23.4797 34.3169 23.6724 34.1242 23.7848Z" fill="url(#paint3_linear_717_2471)"/>
<path id="Vector_12" fill-rule="evenodd" clip-rule="evenodd" d="M34.1242 23.7848L27.3481 27.6867C27.2517 27.7349 27.1554 27.767 27.043 27.783L27.1714 28.0239L34.6862 23.6724V23.576L34.4935 23.2549C34.4614 23.4797 34.3169 23.6724 34.1242 23.7848Z" fill="url(#paint4_linear_717_2471)"/>
</g>
</g>
</g>
</g>
</g>
</g>
</g>
<defs>
<linearGradient id="paint0_linear_717_2471" x1="1051.86" y1="312.25" x2="310.86" y2="1476.53" gradientUnits="userSpaceOnUse">
<stop stop-color="#41873F"/>
<stop offset="0.3288" stop-color="#418B3D"/>
<stop offset="0.6352" stop-color="#419637"/>
<stop offset="0.9319" stop-color="#3FA92D"/>
<stop offset="1" stop-color="#3FAE2A"/>
</linearGradient>
<linearGradient id="paint1_linear_717_2471" x1="659.501" y1="962.014" x2="2515.22" y2="-46.1921" gradientUnits="userSpaceOnUse">
<stop offset="0.1376" stop-color="#41873F"/>
<stop offset="0.4032" stop-color="#54A044"/>
<stop offset="0.7136" stop-color="#66B848"/>
<stop offset="0.9081" stop-color="#6CC04A"/>
</linearGradient>
<linearGradient id="paint2_linear_717_2471" x1="-45.0804" y1="873.496" x2="1519.17" y2="873.496" gradientUnits="userSpaceOnUse">
<stop offset="0.0919165" stop-color="#6CC04A"/>
<stop offset="0.2864" stop-color="#66B848"/>
<stop offset="0.5968" stop-color="#54A044"/>
<stop offset="0.8624" stop-color="#41873F"/>
</linearGradient>
<linearGradient id="paint3_linear_717_2471" x1="-766.79" y1="263.019" x2="797.458" y2="263.019" gradientUnits="userSpaceOnUse">
<stop offset="0.0919165" stop-color="#6CC04A"/>
<stop offset="0.2864" stop-color="#66B848"/>
<stop offset="0.5968" stop-color="#54A044"/>
<stop offset="0.8624" stop-color="#41873F"/>
</linearGradient>
<linearGradient id="paint4_linear_717_2471" x1="1025.35" y1="-983.336" x2="629.067" y2="1093.19" gradientUnits="userSpaceOnUse">
<stop stop-color="#41873F"/>
<stop offset="0.3288" stop-color="#418B3D"/>
<stop offset="0.6352" stop-color="#419637"/>
<stop offset="0.9319" stop-color="#3FA92D"/>
<stop offset="1" stop-color="#3FAE2A"/>
</linearGradient>
<clipPath id="clip0_717_2471">
<rect width="71.1336" height="43.6249" fill="white" transform="translate(0.658203 0.597656)"/>
</clipPath>
</defs>
</svg>
