<svg width="72" height="38" viewBox="0 0 72 38" fill="none" xmlns="http://www.w3.org/2000/svg">
<g id="php 1" clip-path="url(#clip0_715_2309)">
<g id="Group">
<path id="Vector" d="M35.8982 37.5355C55.6109 37.5355 71.5913 29.1333 71.5913 18.7687C71.5913 8.40412 55.6109 0.00195312 35.8982 0.00195312C16.1854 0.00195312 0.205078 8.40412 0.205078 18.7687C0.205078 29.1333 16.1854 37.5355 35.8982 37.5355Z" fill="url(#paint0_radial_715_2309)"/>
<path id="Vector_2" d="M35.8984 36.1415C54.8412 36.1415 70.1973 28.3636 70.1973 18.769C70.1973 9.17442 54.8412 1.39648 35.8984 1.39648C16.9557 1.39648 1.59961 9.17442 1.59961 18.769C1.59961 28.3636 16.9557 36.1415 35.8984 36.1415Z" fill="#6181B6"/>
<g id="Group_2">
<path id="Vector_3" d="M42.8447 24.4019L44.5457 15.646C44.9361 13.6661 44.6014 12.1882 43.5976 11.268C42.6216 10.3757 40.9485 9.9295 38.4946 9.9295H35.5387L36.3753 5.5794C36.4032 5.41209 36.3753 5.24478 36.2638 5.10535C36.1522 4.96593 36.0128 4.91016 35.8455 4.91016H31.7742C31.4954 4.91016 31.2723 5.10535 31.2165 5.35632L29.404 14.6421C29.2367 13.5825 28.8463 12.6901 28.177 11.9651C26.978 10.5987 25.1097 9.90161 22.5721 9.90161H14.7364C14.4575 9.90161 14.2344 10.0968 14.1786 10.3478L10.5257 29.1982C10.4978 29.3655 10.5257 29.5328 10.6372 29.6722C10.7488 29.8117 10.8882 29.8674 11.0555 29.8674H15.1546C15.4335 29.8674 15.6566 29.6722 15.7123 29.4213L16.6047 24.876H19.6442C21.2336 24.876 22.6 24.7087 23.6317 24.3741C24.7193 24.0115 25.6953 23.426 26.5597 22.6173C27.2568 21.9759 27.8424 21.2509 28.2886 20.4701L27.5636 24.2346C27.5357 24.4019 27.5636 24.5692 27.6751 24.7087C27.7866 24.8481 27.9261 24.9039 28.0934 24.9039H32.1646C32.4435 24.9039 32.6666 24.7087 32.7223 24.4577L34.7301 14.1402H37.5186C38.7177 14.1402 39.0523 14.3633 39.1638 14.4748C39.2475 14.5584 39.4148 14.8931 39.2196 15.9248L37.6023 24.2625C37.5744 24.4298 37.6022 24.5971 37.7138 24.7366C37.8253 24.876 37.9648 24.9318 38.1321 24.9318H42.3149C42.5658 24.8481 42.7889 24.6529 42.8447 24.4019ZM23.9943 17.1518C23.7433 18.4624 23.2692 19.4105 22.5721 19.9403C21.875 20.4701 20.7317 20.749 19.2259 20.749H17.4133L18.7239 14.0007H21.0663C22.7952 14.0007 23.4923 14.3633 23.7712 14.67C24.1337 15.1162 24.2173 15.9806 23.9943 17.1518Z" fill="white"/>
<path id="Vector_4" d="M60.2445 11.9654C59.0455 10.599 57.1772 9.90186 54.6396 9.90186H46.7481C46.4692 9.90186 46.2461 10.0971 46.1904 10.348L42.5374 29.1706C42.5095 29.3379 42.5374 29.5052 42.6489 29.6446C42.7605 29.784 42.8999 29.8398 43.0672 29.8398H47.1663C47.4452 29.8398 47.6683 29.6446 47.7241 29.3936L48.6164 24.8483H51.6559C53.2453 24.8483 54.6117 24.681 55.6435 24.3464C56.731 23.9839 57.707 23.3983 58.5714 22.5896C59.2964 21.9204 59.9099 21.1675 60.3561 20.3588C60.8022 19.5501 61.1369 18.6578 61.3321 17.6818C61.8061 15.2558 61.4436 13.3596 60.2445 11.9654ZM55.9781 17.152C55.7271 18.4626 55.2531 19.4107 54.5559 19.9405C53.8588 20.4704 52.7155 20.7492 51.2097 20.7492H49.3972L50.7078 14.001H53.0501C54.779 14.001 55.4762 14.3635 55.755 14.6702C56.1454 15.1164 56.2291 15.9808 55.9781 17.152Z" fill="white"/>
</g>
<g id="Group_3">
<path id="Vector_5" d="M21.063 13.4427C22.6246 13.4427 23.6563 13.7216 24.1861 14.3071C24.716 14.8927 24.8275 15.8687 24.5486 17.263C24.2698 18.713 23.7121 19.7727 22.9034 20.3861C22.0947 20.9996 20.8678 21.3063 19.2226 21.3063H16.7408L18.2745 13.4427H21.063ZM11.0801 29.2815H15.1792L16.1552 24.2901H19.6687C21.2303 24.2901 22.4851 24.1228 23.489 23.7881C24.4929 23.4535 25.3852 22.9237 26.2218 22.1429C26.9189 21.5015 27.4766 20.8044 27.8949 20.0515C28.3132 19.2986 28.6199 18.462 28.7872 17.5418C29.2334 15.311 28.8987 13.5821 27.8112 12.3273C26.7237 11.0725 24.9948 10.459 22.6246 10.459H14.733L11.0801 29.2815Z" fill="#000004"/>
<path id="Vector_6" d="M31.7975 5.46777H35.8687L34.8928 10.4592H38.5178C40.8044 10.4592 42.366 10.8496 43.2304 11.6583C44.0949 12.467 44.3459 13.7497 44.0112 15.5343L42.3102 24.2903H38.1832L39.8006 15.9526C39.9958 15.0045 39.9121 14.3632 39.6054 14.0285C39.2986 13.6939 38.6015 13.4987 37.5697 13.4987H34.3072L32.2158 24.2903H28.1445L31.7975 5.46777Z" fill="#000004"/>
<path id="Vector_7" d="M53.0474 13.4427C54.6089 13.4427 55.6407 13.7216 56.1705 14.3071C56.7003 14.8927 56.8119 15.8687 56.533 17.263C56.2542 18.713 55.6965 19.7727 54.8878 20.3861C54.0791 20.9996 52.8522 21.3063 51.2069 21.3063H48.7252L50.2588 13.4427H53.0474ZM43.0645 29.2815H47.1636L48.1396 24.2901H51.6531C53.2147 24.2901 54.4695 24.1228 55.4734 23.7881C56.4773 23.4535 57.3696 22.9237 58.2061 22.1429C58.9033 21.5015 59.461 20.8044 59.8793 20.0515C60.2975 19.2986 60.6043 18.462 60.7716 17.5418C61.2177 15.311 60.8831 13.5821 59.7956 12.3273C58.7081 11.0725 56.9792 10.459 54.6089 10.459H46.7174L43.0645 29.2815Z" fill="#000004"/>
</g>
</g>
</g>
<defs>
<radialGradient id="paint0_radial_715_2309" cx="0" cy="0" r="1" gradientUnits="userSpaceOnUse" gradientTransform="translate(21.6354 6.60175) scale(46.8737 46.8737)">
<stop stop-color="white"/>
<stop offset="0.5" stop-color="#4C6B97"/>
<stop offset="1" stop-color="#231F20"/>
</radialGradient>
<clipPath id="clip0_715_2309">
<rect width="71.3862" height="37.6451" fill="white" transform="translate(0.205078 0.00195312)"/>
</clipPath>
</defs>
</svg>
