<svg width="46" height="46" viewBox="0 0 46 46" fill="none" xmlns="http://www.w3.org/2000/svg">
<g id="python 1" clip-path="url(#clip0_715_2211)">
<g id="Group">
<path id="Vector" d="M22.7617 0.910645C11.3119 0.910645 12.0269 5.87597 12.0269 5.87597L12.0396 11.02H22.9659V12.5645H7.69977C7.69977 12.5645 0.373047 11.7336 0.373047 23.2865C0.373046 34.8395 6.76798 34.4298 6.76798 34.4298H10.5845V29.0688C10.5845 29.0688 10.3788 22.6738 16.8773 22.6738H27.7143C27.7143 22.6738 33.8028 22.7723 33.8028 16.7895V6.89712C33.8028 6.89712 34.7273 0.910645 22.7617 0.910645ZM16.7369 4.36978C17.824 4.36978 18.7026 5.2484 18.7026 6.33549C18.7026 7.42257 17.824 8.30119 16.7369 8.30119C15.6498 8.30119 14.7712 7.42257 14.7712 6.33549C14.7712 5.2484 15.6498 4.36978 16.7369 4.36978Z" fill="url(#paint0_linear_715_2211)"/>
<path id="Vector_2" d="M23.089 45.7783C34.5388 45.7783 33.8238 40.8129 33.8238 40.8129L33.811 35.6689H22.8847V34.1244H38.1509C38.1509 34.1244 45.4776 34.9553 45.4776 23.4024C45.4776 11.8494 39.0827 12.2591 39.0827 12.2591H35.2661V17.6201C35.2661 17.6201 35.4719 24.0151 28.9733 24.0151H18.1364C18.1364 24.0151 12.0478 23.9166 12.0478 29.8994V39.7918C12.0478 39.7918 11.1234 45.7783 23.089 45.7783ZM29.1137 42.3191C28.0266 42.3191 27.148 41.4405 27.148 40.3534C27.148 39.2663 28.0266 38.3877 29.1137 38.3877C30.2008 38.3877 31.0794 39.2663 31.0794 40.3534C31.0794 41.4405 30.2008 42.3191 29.1137 42.3191Z" fill="url(#paint1_linear_715_2211)"/>
</g>
</g>
<defs>
<linearGradient id="paint0_linear_715_2211" x1="433.816" y1="404.482" x2="2668.93" y2="2617.3" gradientUnits="userSpaceOnUse">
<stop stop-color="#387EB8"/>
<stop offset="1" stop-color="#366994"/>
</linearGradient>
<linearGradient id="paint1_linear_715_2211" x1="651.777" y1="702.091" x2="3052.05" y2="2971.14" gradientUnits="userSpaceOnUse">
<stop stop-color="#FFE052"/>
<stop offset="1" stop-color="#FFC331"/>
</linearGradient>
<clipPath id="clip0_715_2211">
<rect width="45.2113" height="45.0347" fill="white" transform="translate(0.349609 0.897949)"/>
</clipPath>
</defs>
</svg>
