<svg width="54" height="49" viewBox="0 0 54 49" fill="none" xmlns="http://www.w3.org/2000/svg">
<g id="react 1" clip-path="url(#clip0_715_2334)">
<g id="Group">
<path id="Vector" d="M44.2292 15.9161C43.6717 15.7242 43.094 15.5426 42.4992 15.3709C42.597 14.9719 42.6867 14.5781 42.7665 14.191C44.0761 7.83412 43.2198 2.71302 40.296 1.02693C37.4924 -0.589803 32.9074 1.0959 28.2767 5.12582C27.8314 5.51334 27.3849 5.92362 26.9386 6.35361C26.6412 6.06912 26.3442 5.79419 26.0481 5.53123C21.195 1.22217 16.3305 -0.593725 13.4096 1.09724C10.6087 2.71866 9.77924 7.53299 10.958 13.5574C11.0719 14.1393 11.2049 14.7335 11.3554 15.3377C10.667 15.5331 10.0023 15.7415 9.36638 15.9631C3.67667 17.9468 0.0429688 21.0557 0.0429688 24.2805C0.0429688 27.6111 3.94375 30.9517 9.87002 32.9772C10.3377 33.1371 10.823 33.2882 11.3231 33.4317C11.1607 34.0852 11.0196 34.7255 10.901 35.3501C9.77704 41.2699 10.6548 45.9705 13.4482 47.5817C16.3336 49.2456 21.1761 47.5353 25.8914 43.4135C26.2641 43.0877 26.6381 42.7422 27.0128 42.38C27.4984 42.8477 27.9833 43.2903 28.4657 43.7055C33.033 47.6358 37.544 49.2229 40.3348 47.6072C43.2173 45.9386 44.1541 40.889 42.9379 34.7454C42.845 34.2762 42.7369 33.7968 42.6155 33.309C42.9556 33.2084 43.2895 33.1047 43.615 32.9968C49.7759 30.9555 53.7844 27.6555 53.7844 24.2805C53.7844 21.0441 50.0335 17.9142 44.2292 15.9161ZM42.893 30.8175C42.5991 30.9148 42.2976 31.0089 41.9903 31.1C41.3102 28.9468 40.3922 26.6572 39.2689 24.2917C40.3409 21.9825 41.2233 19.7221 41.8844 17.5829C42.4342 17.742 42.9678 17.9098 43.4819 18.0869C48.455 19.7989 51.4886 22.3301 51.4886 24.2805C51.4886 26.358 48.2125 29.0549 42.893 30.8175ZM40.6857 35.1913C41.2235 37.9079 41.3003 40.364 40.9441 42.2841C40.624 44.0094 39.9803 45.1597 39.1844 45.6204C37.4908 46.6007 33.869 45.3264 29.9629 41.9652C29.5151 41.5799 29.0641 41.1684 28.6116 40.733C30.1259 39.0768 31.6393 37.1515 33.1164 35.0132C35.7144 34.7827 38.1689 34.4058 40.3948 33.8913C40.5044 34.3335 40.6018 34.7672 40.6857 35.1913ZM18.3646 45.451C16.7099 46.0354 15.392 46.0521 14.5954 45.5928C12.9002 44.615 12.1955 40.8409 13.1568 35.7782C13.2669 35.1984 13.3979 34.6029 13.549 33.9941C15.7505 34.4809 18.187 34.8312 20.7912 35.0423C22.2782 37.1347 23.8354 39.0579 25.4046 40.7419C25.0617 41.0729 24.7202 41.388 24.3806 41.6849C22.2956 43.5075 20.2061 44.8006 18.3646 45.451ZM10.6125 30.8048C7.99204 29.9092 5.82795 28.7451 4.34456 27.4748C3.01165 26.3333 2.33869 25.2001 2.33869 24.2805C2.33869 22.3236 5.25619 19.8276 10.1221 18.1311C10.7125 17.9252 11.3305 17.7312 11.9719 17.549C12.6444 19.7365 13.5266 22.0236 14.5912 24.3364C13.5128 26.6834 12.6181 29.007 11.939 31.2202C11.4818 31.0887 11.0388 30.9504 10.6125 30.8048ZM13.2111 13.1165C12.2011 7.95494 12.8719 4.06123 14.5598 3.08417C16.3577 2.04331 20.3334 3.52736 24.5236 7.24802C24.7915 7.48583 25.0604 7.73473 25.3301 7.99225C23.7686 9.66886 22.2257 11.5776 20.7519 13.6577C18.2244 13.8919 15.805 14.2682 13.5805 14.7722C13.4407 14.2096 13.3168 13.6569 13.2111 13.1165ZM36.3927 18.8406C35.861 17.9221 35.315 17.0253 34.7585 16.153C36.4732 16.3698 38.116 16.6575 39.6588 17.0096C39.1956 18.4941 38.6183 20.0461 37.9388 21.6372C37.4513 20.7117 36.9357 19.7786 36.3927 18.8406ZM26.9393 9.63299C27.9983 10.7802 29.0587 12.0611 30.1018 13.4508C29.0507 13.4012 27.9866 13.3754 26.9137 13.3754C25.8509 13.3754 24.7946 13.4006 23.7501 13.4494C24.7942 12.0726 25.8638 10.7934 26.9393 9.63299ZM17.4254 18.8565C16.8942 19.7776 16.3881 20.7057 15.9083 21.6355C15.2397 20.05 14.6678 18.4908 14.2006 16.9853C15.7339 16.6422 17.369 16.3616 19.0728 16.149C18.5084 17.0293 17.958 17.9329 17.4254 18.8565ZM19.1219 32.5758C17.3616 32.3794 15.7019 32.1132 14.1689 31.7796C14.6436 30.2472 15.2282 28.6548 15.9109 27.0351C16.392 27.9642 16.9 28.8927 17.4345 29.8158C17.9788 30.7562 18.5429 31.6774 19.1219 32.5758ZM27.0028 39.0898C25.9147 37.9158 24.8294 36.6172 23.7694 35.2202C24.7984 35.2606 25.8475 35.2813 26.9137 35.2813C28.0091 35.2813 29.0919 35.2566 30.1578 35.2092C29.1113 36.6312 28.0546 37.9319 27.0028 39.0898ZM37.9607 26.9525C38.679 28.5897 39.2845 30.1739 39.7653 31.6801C38.2071 32.0356 36.5247 32.3219 34.7522 32.5346C35.3101 31.6505 35.8608 30.7383 36.4019 29.8C36.9494 28.8507 37.4692 27.8999 37.9607 26.9525ZM34.4133 28.6531C33.5732 30.1097 32.7107 31.5002 31.8352 32.8127C30.2404 32.9267 28.5929 32.9855 26.9137 32.9855C25.2413 32.9855 23.6145 32.9335 22.048 32.8318C21.1371 31.5021 20.2559 30.1075 19.4212 28.6656C18.5887 27.2277 17.8226 25.7776 17.1283 24.3356C17.8224 22.8903 18.5867 21.4386 19.4144 20.0032L19.4142 20.0035C20.2441 18.5643 21.1176 17.1765 22.0201 15.855C23.6183 15.7342 25.2573 15.6712 26.9136 15.6712C28.5774 15.6712 30.2185 15.7347 31.8163 15.8566C32.705 17.1683 33.5725 18.5517 34.4057 19.991C35.2484 21.4466 36.0224 22.8887 36.7225 24.303C36.0245 25.7416 35.2522 27.1982 34.4133 28.6531ZM39.1492 3.01587C40.9489 4.05368 41.6487 8.23914 40.518 13.7276C40.4459 14.0778 40.3647 14.4345 40.2765 14.796C38.0469 14.2815 35.6257 13.8987 33.0909 13.6609C31.6142 11.558 30.0839 9.64629 28.5479 7.99119C28.9609 7.59392 29.3733 7.21511 29.7839 6.85764C33.7515 3.40482 37.4597 2.04159 39.1492 3.01587ZM26.9137 19.4816C29.564 19.4816 31.7126 21.6301 31.7126 24.2805C31.7126 26.9308 29.564 29.0794 26.9137 29.0794C24.2634 29.0794 22.1148 26.9308 22.1148 24.2805C22.1148 21.6301 24.2634 19.4816 26.9137 19.4816Z" fill="#00D8FF"/>
</g>
</g>
<defs>
<clipPath id="clip0_715_2334">
<rect width="53.7414" height="47.8635" fill="white" transform="translate(0.0429688 0.417969)"/>
</clipPath>
</defs>
</svg>
